<svg width="150" height="150" viewBox="0 0 150 150" fill="none" xmlns="http://www.w3.org/2000/svg">
<g id="ph:warehouse-fill">
<path id="Vector" d="M140.625 107.812H135.938V33.9258L141.604 32.707C142.218 32.5917 142.804 32.3544 143.326 32.0092C143.848 31.6639 144.295 31.2177 144.642 30.6969C144.988 30.176 145.227 29.591 145.344 28.9764C145.461 28.3617 145.454 27.7299 145.323 27.1181C145.192 26.5063 144.94 25.9269 144.581 25.4141C144.223 24.9013 143.765 24.4655 143.236 24.1323C142.706 23.7991 142.115 23.5753 141.498 23.4741C140.88 23.3729 140.249 23.3963 139.641 23.543L8.39062 51.668C7.25991 51.912 6.25934 52.5654 5.58137 53.5027C4.90341 54.4399 4.59593 55.5947 4.71809 56.745C4.84024 57.8953 5.38339 58.9598 6.24308 59.7337C7.10276 60.5077 8.21826 60.9364 9.375 60.9375C9.70785 60.9369 10.0397 60.9016 10.3652 60.832L14.0625 60.041V107.812H9.375C8.1318 107.812 6.93951 108.306 6.06044 109.185C5.18136 110.065 4.6875 111.257 4.6875 112.5C4.6875 113.743 5.18136 114.935 6.06044 115.815C6.93951 116.694 8.1318 117.188 9.375 117.188H140.625C141.868 117.188 143.06 116.694 143.94 115.815C144.819 114.935 145.312 113.743 145.312 112.5C145.312 111.257 144.819 110.065 143.94 109.185C143.06 108.306 141.868 107.812 140.625 107.812ZM107.812 107.812H42.1875V98.4375H107.812V107.812ZM107.812 89.0625H42.1875V79.6875H107.812V89.0625Z" fill="white"/>
</g>
</svg>
